<svg xmlns="http://www.w3.org/2000/svg" viewBox="0 0 160.78 30"><defs><style>.cls-1{fill:#f90;}.cls-1,.cls-3{fill-rule:evenodd;}.cls-2,.cls-3{fill:#232f3e;}</style></defs><g id="Layer_2" data-name="Layer 2"><g id="Layer_1-2" data-name="Layer 1"><path class="cls-1" d="M61.76,23.46C56,27.73,47.59,30,40.37,30A38.71,38.71,0,0,1,14.24,20c-.54-.49-.06-1.15.59-.78A52.59,52.59,0,0,0,41,26.19a52,52,0,0,0,19.94-4.08c1-.41,1.8.64.84,1.35Z"/><path class="cls-1" d="M64.17,20.71c-.74-.94-4.89-.45-6.76-.22-.56.07-.65-.43-.14-.79,3.31-2.32,8.74-1.65,9.37-.87s-.17,6.22-3.27,8.82c-.48.4-.94.19-.72-.34.69-1.74,2.26-5.65,1.52-6.6Z"/><path class="cls-2" d="M102.94,17.55a1.06,1.06,0,0,1-.78-.3,1.2,1.2,0,0,1,0-1.59,1.06,1.06,0,0,1,.78-.31,1,1,0,0,1,1.09,1.1,1.1,1.1,0,0,1-.3.8A1.08,1.08,0,0,1,102.94,17.55Z"/><path class="cls-2" d="M109.17,17.57a3.89,3.89,0,0,1-3-1.12,4.66,4.66,0,0,1-1-3.26,4.68,4.68,0,0,1,1.07-3.28,4,4,0,0,1,3-1.16,5.11,5.11,0,0,1,1.76.32.47.47,0,0,1,.26.17.53.53,0,0,1,.08.33V10c0,.22-.08.33-.22.33a.86.86,0,0,1-.27,0,5,5,0,0,0-1.38-.2,2.57,2.57,0,0,0-2,.71,3.41,3.41,0,0,0-.61,2.26v.22a3.27,3.27,0,0,0,.62,2.22,2.53,2.53,0,0,0,2,.71,5.65,5.65,0,0,0,1.5-.23.81.81,0,0,1,.25-.05q.21,0,.21.33v.45a.67.67,0,0,1-.06.32.66.66,0,0,1-.27.18A4.84,4.84,0,0,1,109.17,17.57Z"/><path class="cls-2" d="M116.12,17.64a3.79,3.79,0,0,1-3-1.19,4.76,4.76,0,0,1-1.07-3.3,4.73,4.73,0,0,1,1.07-3.28,4.32,4.32,0,0,1,5.93,0,4.73,4.73,0,0,1,1.07,3.28,4.76,4.76,0,0,1-1.07,3.3A3.78,3.78,0,0,1,116.12,17.64Zm0-1.34c1.56,0,2.35-1.05,2.35-3.15S117.68,10,116.12,10s-2.35,1-2.35,3.13S114.55,16.3,116.12,16.3Z"/><path class="cls-2" d="M122,17.39c-.22,0-.33-.11-.33-.34V9.27a.29.29,0,0,1,.33-.33h.73A.48.48,0,0,1,123,9a.45.45,0,0,1,.13.25l.1.54a5.43,5.43,0,0,1,3.11-1.1,2.08,2.08,0,0,1,2.1,1.18,5.63,5.63,0,0,1,3.3-1.18,2.3,2.3,0,0,1,1.77.65,2.58,2.58,0,0,1,.62,1.85v5.86a.3.3,0,0,1-.34.34h-1c-.22,0-.33-.11-.33-.34v-5.4a2,2,0,0,0-.32-1.23,1.18,1.18,0,0,0-1-.4,4.69,4.69,0,0,0-2.45.75,2,2,0,0,1,0,.25v6a.3.3,0,0,1-.34.34h-1c-.22,0-.33-.11-.33-.34v-5.4a2,2,0,0,0-.32-1.23,1.18,1.18,0,0,0-1-.4,4.47,4.47,0,0,0-2.43.73v6.3a.3.3,0,0,1-.34.34Z"/><path class="cls-2" d="M137,17.55a1.06,1.06,0,0,1-.78-.3,1.2,1.2,0,0,1,0-1.59,1.14,1.14,0,0,1,1.56,0,1.2,1.2,0,0,1,0,1.59A1.06,1.06,0,0,1,137,17.55Z"/><path class="cls-2" d="M140.15,17.39c-.22,0-.33-.11-.33-.34V9.27a.29.29,0,0,1,.33-.33h.74a.5.5,0,0,1,.26.06.39.39,0,0,1,.12.25l.1.54a5.48,5.48,0,0,1,3.12-1.1,2.1,2.1,0,0,1,2.1,1.18,5.63,5.63,0,0,1,3.3-1.18,2.29,2.29,0,0,1,1.76.65,2.54,2.54,0,0,1,.62,1.85v5.86c0,.23-.11.34-.33.34h-1c-.22,0-.33-.11-.33-.34v-5.4a1.92,1.92,0,0,0-.32-1.23,1.18,1.18,0,0,0-1-.4,4.71,4.71,0,0,0-2.45.75,2,2,0,0,1,0,.25v6c0,.23-.11.34-.33.34h-1c-.22,0-.33-.11-.33-.34v-5.4a2,2,0,0,0-.32-1.23,1.18,1.18,0,0,0-1-.4,4.5,4.5,0,0,0-2.43.73v6.3c0,.23-.11.34-.33.34Z"/><path class="cls-2" d="M153.55,17.39a.24.24,0,0,1-.18-.06.17.17,0,0,1-.07-.14.85.85,0,0,1,.2-.4l2.63-3.74-2.46-3.51a.76.76,0,0,1-.2-.4c0-.14.08-.2.25-.2h1A.87.87,0,0,1,155,9a.48.48,0,0,1,.2.2l1.84,2.7,1.81-2.7a.57.57,0,0,1,.21-.2,1,1,0,0,1,.33-.05h.9c.16,0,.25.06.25.2a.85.85,0,0,1-.2.4L157.92,13l2.66,3.84a.83.83,0,0,1,.2.4.2.2,0,0,1-.06.14.29.29,0,0,1-.19.06h-1a.7.7,0,0,1-.32-.06.52.52,0,0,1-.2-.19l-2-3-2,3a.54.54,0,0,1-.21.19.73.73,0,0,1-.32.06Z"/><path class="cls-3" d="M57.54,3.28V1a.57.57,0,0,1,.58-.58H68.24a.57.57,0,0,1,.59.57V3c0,.33-.28.75-.76,1.42l-5.25,7.49a11.25,11.25,0,0,1,5.78,1.25,1,1,0,0,1,.53.88V16.4c0,.33-.36.72-.74.51a11.65,11.65,0,0,0-10.7,0c-.36.18-.72-.2-.72-.53V14.12a2.7,2.7,0,0,1,.37-1.55l6.08-8.72H58.13a.57.57,0,0,1-.59-.57Z"/><path class="cls-3" d="M77.58,3.38c-2.28,0-2.42,3.1-2.42,5s0,6.05,2.39,6.05,2.5-3.33,2.5-5.36a14.73,14.73,0,0,0-.46-4.19,1.93,1.93,0,0,0-2-1.53Zm0-3.23c4.57,0,7,3.93,7,8.92,0,4.83-2.73,8.65-7,8.65-4.49,0-6.93-3.92-6.93-8.82S73.09.15,77.55.15Z"/><path class="cls-3" d="M52.58,17.35a.66.66,0,0,1-.73.07,8.08,8.08,0,0,1-1.77-2.05A6.11,6.11,0,0,1,45,17.61c-2.59,0-4.61-1.6-4.61-4.8a5.24,5.24,0,0,1,3.29-5A21.38,21.38,0,0,1,49.47,6.7a5.46,5.46,0,0,0-.37-2.63,2.16,2.16,0,0,0-1.73-.8A2.34,2.34,0,0,0,44.9,5.08c-.06.34-.31.63-.58.6l-3-.32a.54.54,0,0,1-.46-.64C41.6,1.09,44.87,0,47.8,0a7,7,0,0,1,4.64,1.53c1.5,1.4,1.35,3.27,1.35,5.31v4.8A4.18,4.18,0,0,0,55,14.49a.59.59,0,0,1,0,.82c-.63.53-2.37,2-2.37,2ZM49.47,9.84a6,6,0,0,1-.58,3.27,2.5,2.5,0,0,1-2.13,1.4c-1.18,0-1.87-.9-1.87-2.24,0-2.62,2.35-3.1,4.58-3.1v.67Z"/><path class="cls-3" d="M12.19,17.35a.66.66,0,0,1-.73.07,7.85,7.85,0,0,1-1.77-2.05,6.11,6.11,0,0,1-5.08,2.24C2,17.61,0,16,0,12.81a5.23,5.23,0,0,1,3.29-5A21.38,21.38,0,0,1,9.08,6.7,5.37,5.37,0,0,0,8.7,4.07,2.13,2.13,0,0,0,7,3.27,2.34,2.34,0,0,0,4.51,5.08c-.06.34-.32.63-.58.6L1,5.36a.53.53,0,0,1-.46-.64C1.2,1.09,4.47,0,7.41,0a7,7,0,0,1,4.64,1.53c1.5,1.4,1.35,3.27,1.35,5.31v4.8a4.18,4.18,0,0,0,1.17,2.85.59.59,0,0,1,0,.82c-.63.53-2.37,2-2.37,2ZM9.08,9.84a6,6,0,0,1-.58,3.27,2.52,2.52,0,0,1-2.13,1.4c-1.18,0-1.87-.9-1.87-2.24,0-2.62,2.35-3.1,4.58-3.1v.67Z"/><path class="cls-3" d="M21.2,8.44c0-1.83-.09-4.36,2.12-4.36s1.9,2.6,1.9,4.36v8.38a.57.57,0,0,0,.55.57h3.08a.58.58,0,0,0,.59-.57V8.44a9.47,9.47,0,0,1,.29-3,2,2,0,0,1,1.84-1.3,1.61,1.61,0,0,1,1.81,1.37,20.73,20.73,0,0,1,.09,3v8.38a.57.57,0,0,0,.55.57h3.08a.57.57,0,0,0,.59-.57v-10c0-1.7.2-3.63-.78-5a4.55,4.55,0,0,0-7.82,1.2c-.87-2-2.08-2.93-4-2.93a4.07,4.07,0,0,0-4.06,2.93H21v-2a.56.56,0,0,0-.57-.57H17.54a.57.57,0,0,0-.57.57V16.81a.58.58,0,0,0,.57.58h3.08a.58.58,0,0,0,.58-.58V8.44Z"/><path class="cls-3" d="M91.13,16.81a.58.58,0,0,1-.58.58H87.47a.58.58,0,0,1-.57-.58V1.06a.57.57,0,0,1,.57-.57h2.85a.56.56,0,0,1,.57.45V3.35H91c.87-2.17,2.07-3.2,4.2-3.2A4,4,0,0,1,98.75,2c.8,1.26.8,3.39.8,4.92v10a.58.58,0,0,1-.59.5H95.87a.6.6,0,0,1-.55-.5V7.34c0-3.2-1.22-3.29-1.93-3.29a2.09,2.09,0,0,0-1.77,1.24,7,7,0,0,0-.5,3v8.5Z"/></g></g></svg>