<svg xmlns="http://www.w3.org/2000/svg" viewBox="0 0 318.86 80.99"><defs><style>.cls-1{fill:#f90;}.cls-1,.cls-3{fill-rule:evenodd;}.cls-2,.cls-3{fill:#232f3e;}</style></defs><g id="Layer_2" data-name="Layer 2"><g id="Layer_1-2" data-name="Layer 1"><path class="cls-1" d="M166.74,63.34C151.12,74.86,128.48,81,109,81A104.54,104.54,0,0,1,38.44,54.08C37,52.76,38.29,51,40,52a142,142,0,0,0,70.59,18.73,140.36,140.36,0,0,0,53.84-11c2.64-1.12,4.85,1.74,2.27,3.65Z"/><path class="cls-1" d="M173.24,55.92c-2-2.56-13.21-1.21-18.24-.61-1.53.19-1.76-1.15-.39-2.11,8.94-6.28,23.59-4.47,25.29-2.36s-.45,16.8-8.83,23.81c-1.29,1.07-2.51.5-1.94-.92,1.89-4.71,6.11-15.25,4.11-17.81Z"/><path class="cls-2" d="M277.92,47.39a2.82,2.82,0,0,1-2.11-.83,3.23,3.23,0,0,1,0-4.28,3.11,3.11,0,0,1,4.23,0,3.23,3.23,0,0,1,0,4.28A2.85,2.85,0,0,1,277.92,47.39Z"/><path class="cls-3" d="M155.35,8.85V2.75A1.52,1.52,0,0,1,156.9,1.2h27.34a1.52,1.52,0,0,1,1.58,1.54V8c0,.88-.75,2-2.06,3.84L169.6,32c5.26-.12,10.82.67,15.59,3.35a2.78,2.78,0,0,1,1.45,2.38v6.51c0,.9-1,1.94-2,1.4a31.5,31.5,0,0,0-28.89,0c-1,.51-1.94-.52-1.94-1.41V38.12a7.31,7.31,0,0,1,1-4.19l16.41-23.55H156.93a1.52,1.52,0,0,1-1.58-1.53Z"/><path class="cls-3" d="M209.43,9.13c-6.13,0-6.52,8.35-6.52,13.56S202.84,39,209.36,39s6.75-9,6.75-14.46c0-3.59-.15-7.91-1.24-11.32-.93-3-2.8-4.13-5.44-4.13ZM209.36.41c12.34,0,19,10.6,19,24.08,0,13-7.37,23.36-19,23.36-12.11,0-18.72-10.6-18.72-23.81S197.32.41,209.36.41Z"/><path class="cls-3" d="M142,46.84a1.79,1.79,0,0,1-2,.2,21.75,21.75,0,0,1-4.77-5.55c-4.56,4.65-7.8,6-13.71,6-7,0-12.45-4.32-12.45-13A14.13,14.13,0,0,1,117.92,21c4.51-2,10.82-2.34,15.64-2.88,0,0,.4-5.22-1-7.12a5.85,5.85,0,0,0-4.67-2.16c-3.09,0-6.07,1.67-6.66,4.9-.17.92-.85,1.7-1.57,1.62l-8-.87a1.45,1.45,0,0,1-1.24-1.73C112.3,3,121.13,0,129.05,0c4,0,9.34,1.08,12.53,4.14,4,3.78,3.65,8.83,3.65,14.32v13c0,3.9,1.62,5.61,3.14,7.71a1.58,1.58,0,0,1,0,2.21c-1.7,1.42-6.4,5.5-6.4,5.5Zm-8.39-20.28c0,3.24.08,5.94-1.56,8.83a6.77,6.77,0,0,1-5.75,3.78c-3.19,0-5.06-2.44-5.06-6,0-7.08,6.35-8.37,12.37-8.37v1.8Z"/><path class="cls-3" d="M32.9,46.84a1.79,1.79,0,0,1-2,.2,21.75,21.75,0,0,1-4.77-5.55c-4.56,4.65-7.8,6-13.71,6-7,0-12.45-4.32-12.45-13A14.13,14.13,0,0,1,8.87,21c4.51-2,10.82-2.34,15.64-2.88,0,0,.4-5.22-1-7.12a5.83,5.83,0,0,0-4.67-2.16c-3.08,0-6.07,1.67-6.66,4.9-.17.92-.85,1.7-1.57,1.62l-8-.87A1.45,1.45,0,0,1,1.4,12.74C3.25,3,12.08,0,20,0c4,0,9.34,1.08,12.53,4.14,4,3.78,3.65,8.83,3.65,14.32v13c0,3.9,1.62,5.61,3.14,7.71a1.58,1.58,0,0,1,0,2.21c-1.7,1.42-6.4,5.5-6.4,5.5ZM24.51,26.56c0,3.24.08,5.94-1.55,8.83a6.79,6.79,0,0,1-5.76,3.78c-3.19,0-5.06-2.44-5.06-6,0-7.08,6.36-8.37,12.37-8.37v1.8Z"/><path class="cls-3" d="M57.22,22.78C57.22,17.84,57,11,63,11s5.12,7,5.12,11.77V45.42A1.56,1.56,0,0,0,69.6,47h8.31a1.57,1.57,0,0,0,1.6-1.54V22.78c0-2.42-.08-6,.78-8.17a5.51,5.51,0,0,1,5-3.51c2.4,0,4.27.81,4.89,3.69.39,1.7.23,6.2.23,8V45.42A1.56,1.56,0,0,0,91.88,47h8.3a1.58,1.58,0,0,0,1.61-1.54V18.47c0-4.58.54-9.79-2.1-13.39A12.29,12.29,0,0,0,78.58,8.32C76.25,2.93,73,.41,67.78.41S58.86,2.93,56.84,8.32h-.16V2.87a1.56,1.56,0,0,0-1.55-1.56H47.36a1.56,1.56,0,0,0-1.55,1.56V45.4A1.56,1.56,0,0,0,47.36,47h8.31a1.55,1.55,0,0,0,1.55-1.55V22.78Z"/><path class="cls-3" d="M246,45.4A1.56,1.56,0,0,1,244.46,47h-8.3a1.56,1.56,0,0,1-1.56-1.55V2.87a1.56,1.56,0,0,1,1.56-1.56h7.68a1.53,1.53,0,0,1,1.55,1.22V9h.16C247.88,3.2,251.14.41,256.89.41a10.91,10.91,0,0,1,9.7,5c2.18,3.42,2.18,9.17,2.18,13.3V45.61a1.58,1.58,0,0,1-1.6,1.34h-8.33a1.57,1.57,0,0,1-1.49-1.34l0-25.8c0-8.63-3.31-8.89-5.22-8.89a5.69,5.69,0,0,0-4.78,3.35A19.25,19.25,0,0,0,246,22.43v23Z"/><path class="cls-2" d="M286.56,56.21a.8.8,0,0,1-.9-.9V25a.8.8,0,0,1,.9-.9h2a.93.93,0,0,1,1,.9l.23,1.44a11.21,11.21,0,0,1,7.6-3,8.31,8.31,0,0,1,6.89,3.17c1.68,2.11,2.52,5,2.52,8.61a13.83,13.83,0,0,1-2.66,8.87,8.57,8.57,0,0,1-7.06,3.33,10,10,0,0,1-7-2.66V55.31a.8.8,0,0,1-.9.9Zm9.49-12.37q6.21,0,6.21-8.37,0-4.28-1.51-6.34a5.32,5.32,0,0,0-4.61-2.07,10,10,0,0,0-6,2.07V41.68A9.93,9.93,0,0,0,296.05,43.84Z"/><path class="cls-2" d="M315.62,47.17A4.68,4.68,0,0,1,312,45.79a5.59,5.59,0,0,1-1.26-3.93V14.55a.8.8,0,0,1,.9-.9h2.65a.8.8,0,0,1,.9.9v27a2.2,2.2,0,0,0,.43,1.5,1.83,1.83,0,0,0,1.42.48,3.75,3.75,0,0,0,.56,0,3.46,3.46,0,0,1,.52,0,.67.67,0,0,1,.6.22,1.16,1.16,0,0,1,.16.68v1.44a1.07,1.07,0,0,1-.2.69,1.29,1.29,0,0,1-.7.39A10,10,0,0,1,315.62,47.17Z"/></g></g></svg>