<?xml version="1.0" encoding="UTF-8"?>
<svg width="122px" height="30px" viewBox="0 0 122 30" version="1.1" xmlns="http://www.w3.org/2000/svg" xmlns:xlink="http://www.w3.org/1999/xlink">
    <title>Artboard Copy</title>
    <g id="Artboard-Copy" stroke="none" stroke-width="1" fill="none" fill-rule="evenodd">
        <g id="amazon-sg-half-logo" transform="translate(-0.000000, 0.000000)">
            <path d="M61.7619513,23.465049 C56.0019513,27.735049 47.5919513,30.005049 40.3719513,30.005049 C30.7198307,30.046005 21.4006058,26.4795201 14.2419513,20.005049 C13.7019513,19.515049 14.1819513,18.855049 14.8319513,19.225049 C22.7972154,23.7931864 31.8197234,26.1962006 41.0019513,26.195049 C47.8524827,26.1617995 54.6289296,24.7752447 60.9419513,22.115049 C61.9419513,21.705049 62.7419513,22.755049 61.7819513,23.465049 L61.7619513,23.465049 Z" id="Path" fill="#FF9900"></path>
            <path d="M64.1719513,20.715049 C63.4319513,19.775049 59.2819513,20.265049 57.4119513,20.495049 C56.8519513,20.565049 56.7619513,20.065049 57.2719513,19.705049 C60.5819513,17.385049 66.0119513,18.055049 66.6419513,18.835049 C67.2719513,19.615049 66.4719513,25.055049 63.3719513,27.655049 C62.8919513,28.055049 62.4319513,27.845049 62.6519513,27.315049 C63.3419513,25.565049 64.9119513,21.665049 64.1719513,20.715049 Z" id="Path" fill="#FF9900"></path>
            <path d="M102.941951,17.555049 C102.651839,17.5660853 102.369897,17.4576461 102.161951,17.255049 C101.76045,16.8010882 101.76045,16.1190099 102.161951,15.665049 C102.368222,15.458794 102.650372,15.3466572 102.941951,15.355049 C103.240697,15.3263931 103.536518,15.4334278 103.747762,15.6466095 C103.959006,15.8597912 104.063334,16.1565772 104.031951,16.455049 C104.043831,16.7512452 103.935661,17.0396986 103.731951,17.255049 C103.520294,17.4581968 103.235101,17.5664981 102.941951,17.555049 L102.941951,17.555049 Z" id="Path" fill="#232F3E" fill-rule="nonzero"></path>
            <path d="M57.5419513,3.28504901 L57.5419513,1.00504901 C57.5360868,0.850389399 57.5956571,0.700416493 57.706044,0.591932787 C57.8164309,0.483449081 57.9674171,0.426495821 58.1219513,0.435049012 L68.2419513,0.435049012 C68.3965594,0.429620796 68.546733,0.487269204 68.6579943,0.59475893 C68.7692556,0.702248657 68.8320466,0.850345721 68.8319513,1.00504901 L68.8319513,3.00504901 C68.8319513,3.33504901 68.5519513,3.75504901 68.0719513,4.42504901 L62.8219513,11.915049 C64.8256149,11.8088184 66.8212297,12.240396 68.6019513,13.165049 C68.9272985,13.3382874 69.1309678,13.6764553 69.1319513,14.045049 L69.1319513,16.405049 C69.1319513,16.735049 68.7719513,17.125049 68.3919513,16.915049 C65.0362289,15.1802663 61.0476738,15.1802663 57.6919513,16.915049 C57.3319513,17.095049 56.9719513,16.715049 56.9719513,16.385049 L56.9719513,14.125049 C56.9365342,13.5829242 57.0654852,13.0427242 57.3419513,12.575049 L63.4219513,3.85504901 L58.1319513,3.85504901 C57.9773433,3.86047723 57.8271697,3.80282882 57.7159084,3.69533909 C57.6046471,3.58784937 57.5418561,3.4397523 57.5419513,3.28504901 Z" id="Path" fill="#232F3E"></path>
            <g id="Group" fill="#232F3E">
                <path d="M77.5519513,0.155049012 C82.1219513,0.155049012 84.5519513,4.08504901 84.5519513,9.07504901 C84.5519513,13.905049 81.8219513,17.725049 77.5519513,17.725049 C73.0619513,17.725049 70.6119513,13.805049 70.6119513,8.90504901 C70.6119513,4.00504901 73.0919513,0.155049012 77.5519513,0.155049012 Z M77.5519513,3.38504901 C75.2719513,3.38504901 75.1319513,6.48504901 75.1319513,8.38504901 C75.1319513,10.285049 75.1319513,14.435049 77.5219513,14.435049 C79.9119513,14.435049 80.0219513,11.105049 80.0219513,9.07504901 C80.0702812,7.66355211 79.915362,6.25244075 79.5619513,4.88504901 C79.3656181,3.95048295 78.5153303,3.30001278 77.5619513,3.35504901 L77.5519513,3.38504901 Z" id="Shape"></path>
                <path d="M49.4719513,9.84504901 C49.5901386,10.9679092 49.3891034,12.1013315 48.8919513,13.115049 C48.4910291,13.9357958 47.6743974,14.4725491 46.7619513,14.515049 C45.5819513,14.515049 44.8919513,13.615049 44.8919513,12.275049 C44.8919513,9.65504901 47.2419513,9.17504901 49.4719513,9.17504901 L49.4719513,9.84504901 L49.4719513,9.84504901 Z M52.5819513,17.355049 C52.3751651,17.523863 52.0870497,17.5514905 51.8519513,17.425049 C51.1508123,16.8461704 50.5524074,16.1531027 50.0819513,15.375049 C48.8452032,16.8923599 46.9563401,17.7252445 45.0019513,17.615049 C42.4119513,17.615049 40.3919513,16.015049 40.3919513,12.815049 C40.3352241,10.6244016 41.6476655,8.62980977 43.6819513,7.81504901 C45.5514336,7.17945313 47.4999537,6.80590266 49.4719513,6.70504901 C49.5669657,5.81129134 49.4398725,4.90789941 49.1019513,4.07504901 C48.6804828,3.5546143 48.0414541,3.25910967 47.3719513,3.27504901 C46.2133365,3.18113864 45.1614336,3.95196632 44.9019513,5.08504901 C44.8419513,5.42504901 44.5919513,5.71504901 44.3219513,5.68504901 L41.3219513,5.36504901 C41.1738761,5.34575076 41.0404025,5.26599709 40.9532496,5.14474088 C40.8660967,5.02348466 40.8330458,4.87155216 40.8619513,4.72504901 C41.6019513,1.09504901 44.8719513,0.0050490117 47.8019513,0.0050490117 C49.4821773,-0.0587798574 51.1292396,0.484324739 52.4419513,1.53504901 C53.9419513,2.93504901 53.8019513,4.80504901 53.8019513,6.84504901 L53.8019513,11.645049 C53.8219066,12.7137339 54.2514725,13.7339529 55.0019513,14.495049 C55.2229326,14.7237183 55.2229326,15.0863797 55.0019513,15.315049 C54.3719513,15.845049 52.6319513,17.315049 52.6319513,17.315049 L52.5819513,17.355049 Z" id="Shape"></path>
                <path d="M9.08195134,9.84504901 C9.20013858,10.9679092 8.99910343,12.1013315 8.50195134,13.115049 C8.0976972,13.9328556 7.28301986,14.4683243 6.37195134,14.515049 C5.19195134,14.515049 4.50195134,13.615049 4.50195134,12.275049 C4.50195134,9.65504901 6.85195134,9.17504901 9.08195134,9.17504901 L9.08195134,9.84504901 L9.08195134,9.84504901 Z M12.1919513,17.355049 C11.9851651,17.523863 11.6970497,17.5514905 11.4619513,17.425049 C10.7576358,16.8494258 10.1587237,16.1557705 9.69195134,15.375049 C8.4552032,16.8923599 6.56634007,17.7252445 4.61195134,17.615049 C2.00195134,17.615049 0.00195133536,16.005049 0.00195133536,12.815049 C-0.0577164073,10.6235634 1.25573209,8.62744102 3.29195134,7.81504901 C5.16143365,7.17945313 7.10995367,6.80590266 9.08195134,6.70504901 C9.17761672,5.81039128 9.04694952,4.90603672 8.70195134,4.07504901 C8.2898636,3.55936442 7.66196819,3.26388423 7.00195134,3.27504901 C5.83606772,3.17066831 4.77241196,3.94384781 4.51195134,5.08504901 C4.45195134,5.42504901 4.19195134,5.71504901 3.93195134,5.68504901 L1.00195134,5.36504901 C0.852528913,5.34866177 0.717093369,5.26959577 0.629362169,5.14753497 C0.54163097,5.02547418 0.509857277,4.87190123 0.541951335,4.72504901 C1.20195134,1.09504901 4.47195134,0.0050490117 7.41195134,0.0050490117 C9.09217733,-0.0587798574 10.7392396,0.484324739 12.0519513,1.53504901 C13.5519513,2.93504901 13.4019513,4.80504901 13.4019513,6.84504901 L13.4019513,11.645049 C13.4148656,12.7093635 13.8333147,13.7286626 14.5719513,14.495049 C14.7929326,14.7237183 14.7929326,15.0863797 14.5719513,15.315049 C13.9419513,15.845049 12.2019513,17.315049 12.2019513,17.315049 L12.1919513,17.355049 Z" id="Shape"></path>
            </g>
            <path d="M21.2019513,8.44504901 C21.2019513,6.61504901 21.1119513,4.08504901 23.3219513,4.08504901 C25.5319513,4.08504901 25.2219513,6.68504901 25.2219513,8.44504901 L25.2219513,16.825049 C25.2217622,17.1322034 25.464986,17.3842717 25.7719513,17.395049 L28.8519513,17.395049 C29.0057835,17.3977242 29.1543755,17.3391683 29.265027,17.2322677 C29.3756785,17.1253671 29.4393219,16.978882 29.4419513,16.825049 L29.4419513,8.44504901 C29.3778445,7.43597979 29.4757508,6.42315519 29.7319513,5.44504901 C30.0196731,4.67462848 30.7496736,4.15886723 31.5719513,4.14504901 C32.4493538,4.0263371 33.2579611,4.63837693 33.3819513,5.51504901 C33.4843985,6.51156084 33.5144773,7.51418799 33.4719513,8.51504901 L33.4719513,16.895049 C33.4717622,17.2022034 33.714986,17.4542717 34.0219513,17.465049 L37.1019513,17.465049 C37.2565594,17.4704772 37.406733,17.4128288 37.5179943,17.3053391 C37.6292556,17.1978494 37.6920466,17.0497523 37.6919513,16.895049 L37.6919513,6.89504901 C37.6919513,5.19504901 37.8919513,3.26504901 36.9119513,1.89504901 C35.8968332,0.611308858 34.2704834,-0.0283547522 32.6528205,0.219879954 C31.0351577,0.46811466 29.6754391,1.56599849 29.0919513,3.09504901 C28.2219513,1.09504901 27.0119513,0.165049012 25.0919513,0.165049012 C23.2268978,0.0953066898 21.5534112,1.30301993 21.0319513,3.09504901 L21.0019513,3.09504901 L21.0019513,1.09504901 C21.0046907,0.943052383 20.9455174,0.79647359 20.8380221,0.68897829 C20.7305268,0.58148299 20.583948,0.522309663 20.4319513,0.525049012 L17.5419513,0.525049012 C17.227149,0.525049012 16.9719513,0.780246704 16.9719513,1.09504901 L16.9719513,16.815049 C16.9719513,17.1315092 17.2255382,17.3895928 17.5419513,17.395049 L20.6219513,17.395049 C20.9422765,17.395049 21.2019513,17.1353742 21.2019513,16.815049 L21.2019513,8.44504901 Z" id="Path" fill="#232F3E"></path>
            <path d="M91.1319513,16.815049 C91.1319513,17.1353742 90.8722765,17.395049 90.5519513,17.395049 L87.4719513,17.395049 C87.1555382,17.3895928 86.9019513,17.1315092 86.9019513,16.815049 L86.9019513,1.06504901 C86.9019513,0.750246704 87.157149,0.495049012 87.4719513,0.495049012 L90.3219513,0.495049012 C90.5966444,0.48482319 90.8381467,0.675482912 90.8919513,0.945049012 L90.8919513,3.35504901 L91.0019513,3.35504901 C91.8719513,1.18504901 93.0719513,0.155049012 95.2019513,0.155049012 C96.6309406,0.0926427249 97.9844996,0.798018543 98.7519513,2.00504901 C99.5519513,3.26504901 99.5519513,5.39504901 99.5519513,6.92504901 L99.5519513,16.925049 C99.5113115,17.2176456 99.2572511,17.432951 98.9619513,17.425049 L95.8719513,17.425049 C95.5950259,17.4056848 95.3675421,17.1988814 95.3219513,16.925049 L95.3219513,7.34504901 C95.3219513,4.14504901 94.1019513,4.05504901 93.3919513,4.05504901 C92.6174519,4.10759546 91.9358828,4.58507886 91.6219513,5.29504901 C91.2374319,6.24631915 91.0667368,7.27048989 91.1219513,8.29504901 L91.1219513,16.795049 L91.1319513,16.815049 Z" id="Path" fill="#232F3E"></path>
        </g>
        <path d="M109.6302,17.599 C110.095,17.599 110.557033,17.5547333 111.0163,17.4662 C111.475567,17.3776667 111.8712,17.2614667 112.2032,17.1176 C112.347067,17.0512 112.441133,16.9875667 112.4854,16.9267 C112.529667,16.8658333 112.5518,16.7634667 112.5518,16.6196 L112.5518,16.6196 L112.5518,16.1548 C112.5518,15.9556 112.479867,15.856 112.336,15.856 C112.291733,15.856 112.241933,15.8643 112.1866,15.8809 C112.131267,15.8975 112.064867,15.9168667 111.9874,15.939 C111.5226,16.0828667 111.138033,16.1769333 110.8337,16.2212 C110.529367,16.2654667 110.2112,16.2876 109.8792,16.2876 C108.938533,16.2876 108.2441,16.0607333 107.7959,15.607 C107.3477,15.1532667 107.112533,14.4505333 107.0904,13.4988 L107.0904,13.4988 L112.3028,13.4988 C112.413467,13.4988 112.4937,13.4766667 112.5435,13.4324 C112.5933,13.3881333 112.629267,13.2996 112.6514,13.1668 C112.706733,12.8016 112.7344,12.4419333 112.7344,12.0878 C112.7344,11.0032667 112.4522,10.1649667 111.8878,9.5729 C111.3234,8.98083333 110.515533,8.6848 109.4642,8.6848 C108.213667,8.6848 107.2398,9.0749 106.5426,9.8551 C105.8454,10.6353 105.4968,11.7281333 105.4968,13.1336 C105.4968,14.6054667 105.8454,15.7176667 106.5426,16.4702 C107.2398,17.2227333 108.269,17.599 109.6302,17.599 Z M111.2238,12.4032 L107.0904,12.4032 C107.145733,11.5842667 107.367067,10.9673 107.7544,10.5523 C108.141733,10.1373 108.684,9.9298 109.3812,9.9298 C109.989867,9.9298 110.4519,10.1013333 110.7673,10.4444 C111.0827,10.7874667 111.2404,11.2965333 111.2404,11.9716 C111.2404,12.1708 111.234867,12.3146667 111.2238,12.4032 L111.2238,12.4032 Z M117.628782,20.9688 C118.923582,20.9688 119.922349,20.6091333 120.625082,19.8898 C121.327815,19.1704667 121.679182,18.1523333 121.679182,16.8354 L121.679182,16.8354 L121.679182,9.2658 C121.679182,9.04446667 121.568515,8.9338 121.347182,8.9338 L121.347182,8.9338 L120.633382,8.9338 C120.522715,8.9338 120.436949,8.95593333 120.376082,9.0002 C120.315215,9.04446667 120.273715,9.12746667 120.251582,9.2492 L120.251582,9.2492 L120.168582,9.714 C119.427115,9.02786667 118.558382,8.6848 117.562382,8.6848 C116.499982,8.6848 115.653382,9.0749 115.022582,9.8551 C114.391782,10.6353 114.076382,11.6894 114.076382,13.0174 C114.076382,13.8363333 114.214715,14.5612 114.491382,15.192 C114.768049,15.8228 115.166449,16.3152667 115.686582,16.6694 C116.206715,17.0235333 116.820915,17.2006 117.529182,17.2006 C117.971849,17.2006 118.408982,17.1148333 118.840582,16.9433 C119.272182,16.7717667 119.676115,16.5255333 120.052382,16.2046 L120.052382,16.2046 L120.052382,16.9516 C120.052382,17.8922667 119.847649,18.5756333 119.438182,19.0017 C119.028715,19.4277667 118.381315,19.6408 117.495982,19.6408 C116.909449,19.6408 116.273115,19.5467333 115.586982,19.3586 C115.420982,19.3143333 115.290949,19.2756 115.196882,19.2424 C115.102815,19.2092 115.022582,19.1926 114.956182,19.1926 C114.823382,19.1926 114.756982,19.2922 114.756982,19.4914 L114.756982,19.4914 L114.756982,19.9728 C114.756982,20.1166667 114.779115,20.2218 114.823382,20.2882 C114.867649,20.3546 114.956182,20.4154667 115.088982,20.4708 C115.874715,20.8028 116.721315,20.9688 117.628782,20.9688 Z M118.010582,15.8726 C117.269115,15.8726 116.707482,15.6263667 116.325682,15.1339 C115.943882,14.6414333 115.752982,13.9138 115.752982,12.951 C115.752982,10.9922 116.472315,10.0128 117.910982,10.0128 C118.320449,10.0128 118.696715,10.0709 119.039782,10.1871 C119.382849,10.3033 119.720382,10.4886667 120.052382,10.7432 L120.052382,10.7432 L120.052382,15.109 C119.377315,15.6180667 118.696715,15.8726 118.010582,15.8726 Z" id="eg" fill="#232F3E" fill-rule="nonzero"></path>
    </g>
</svg>