<svg xmlns="http://www.w3.org/2000/svg" xmlns:xlink="http://www.w3.org/1999/xlink" viewBox="0 0 121.02 30"><defs><style>.cls-1{fill:none;}.cls-2{fill:#f90;}.cls-2,.cls-4{fill-rule:evenodd;}.cls-3,.cls-4{fill:#232f3e;}.cls-5{clip-path:url(#clip-path);}</style><clipPath id="clip-path" transform="translate(0 0)"><rect class="cls-1" width="121.02" height="30"/></clipPath></defs><g id="Layer_2" data-name="Layer 2"><g id="Layer_1-2" data-name="Layer 1"><path class="cls-2" d="M61.76,23.46C56,27.73,47.59,30,40.37,30A38.71,38.71,0,0,1,14.24,20c-.54-.49-.06-1.15.59-.78A52.59,52.59,0,0,0,41,26.19a52,52,0,0,0,19.94-4.08c1-.41,1.8.64.84,1.35Z" transform="translate(0 0)"/><path class="cls-2" d="M64.17,20.71c-.74-.94-4.89-.45-6.76-.22-.56.07-.65-.43-.14-.78,3.31-2.33,8.74-1.66,9.37-.88s-.17,6.22-3.27,8.82c-.48.4-.94.19-.72-.34.69-1.75,2.26-5.65,1.52-6.6Z" transform="translate(0 0)"/><path class="cls-3" d="M102.94,17.55a1.06,1.06,0,0,1-.78-.3,1.2,1.2,0,0,1,0-1.59,1.06,1.06,0,0,1,.78-.31,1,1,0,0,1,1.09,1.1,1.1,1.1,0,0,1-.3.8,1.08,1.08,0,0,1-.79.3Z" transform="translate(0 0)"/><path class="cls-3" d="M108.41,16.35a3.46,3.46,0,0,0,1.15-.21,4.53,4.53,0,0,0,1.15-.64V13.8a7.77,7.77,0,0,0-1.77-.21c-1.25,0-1.88.48-1.88,1.45a1.31,1.31,0,0,0,.35,1,1.36,1.36,0,0,0,1,.34ZM108,17.6a2.62,2.62,0,0,1-1.89-.67,2.39,2.39,0,0,1-.71-1.81,2.39,2.39,0,0,1,.87-1.94,3.46,3.46,0,0,1,2.33-.73,9,9,0,0,1,2.1.29v-1.1a1.65,1.65,0,0,0-.41-1.27,2.09,2.09,0,0,0-1.39-.37,7.44,7.44,0,0,0-2.25.34,3.08,3.08,0,0,1-.48.11c-.14,0-.2-.1-.2-.3V9.7a.6.6,0,0,1,.06-.31.67.67,0,0,1,.27-.19,5.62,5.62,0,0,1,1.31-.37,8.41,8.41,0,0,1,1.57-.14,3.53,3.53,0,0,1,2.34.65,2.54,2.54,0,0,1,.75,2v5.7a.3.3,0,0,1-.34.34h-.71a.34.34,0,0,1-.37-.32l-.08-.55a4.62,4.62,0,0,1-1.33.8,3.88,3.88,0,0,1-1.44.28Z" transform="translate(0 0)"/><path class="cls-3" d="M119.51,12.42c0-.09,0-.23,0-.43a2.2,2.2,0,0,0-.47-1.54,1.81,1.81,0,0,0-1.39-.51,2.13,2.13,0,0,0-1.64.62,2.92,2.92,0,0,0-.66,1.86Zm-1.6,5.22a4,4,0,0,1-3.1-1.14,4.75,4.75,0,0,1-1-3.35,4.76,4.76,0,0,1,1-3.29,3.72,3.72,0,0,1,2.93-1.17,3.16,3.16,0,0,1,2.43.89A3.48,3.48,0,0,1,121,12.1a6.75,6.75,0,0,1-.08,1.09.42.42,0,0,1-.11.26.33.33,0,0,1-.24.07h-5.23a3,3,0,0,0,.7,2.12,2.87,2.87,0,0,0,2.1.68,6,6,0,0,0,1-.07,7.78,7.78,0,0,0,1.15-.28l.2-.06.15,0c.15,0,.22.1.22.3v.46a.49.49,0,0,1-.07.31.67.67,0,0,1-.28.19,5.44,5.44,0,0,1-1.19.35,7.28,7.28,0,0,1-1.39.14Z" transform="translate(0 0)"/><path class="cls-4" d="M57.54,3.28V1a.55.55,0,0,1,.58-.57H68.24a.57.57,0,0,1,.59.57V3c0,.33-.28.75-.76,1.42l-5.25,7.49a11.25,11.25,0,0,1,5.78,1.25,1,1,0,0,1,.53.88V16.4c0,.33-.36.72-.74.51a11.65,11.65,0,0,0-10.7,0c-.36.18-.72-.2-.72-.53V14.12a2.68,2.68,0,0,1,.37-1.55l6.08-8.72H58.13a.57.57,0,0,1-.59-.57Z" transform="translate(0 0)"/><path class="cls-4" d="M77.55.15c4.57,0,7,3.93,7,8.92,0,4.83-2.73,8.65-7,8.65-4.49,0-6.93-3.92-6.93-8.82S73.09.15,77.55.15Zm0,3.23c-2.28,0-2.42,3.1-2.42,5s0,6.05,2.39,6.05,2.5-3.33,2.5-5.36a14.73,14.73,0,0,0-.46-4.19,1.93,1.93,0,0,0-2-1.53Z" transform="translate(0 0)"/><g class="cls-5"><path class="cls-4" d="M49.47,9.84a6,6,0,0,1-.58,3.27,2.5,2.5,0,0,1-2.13,1.4c-1.18,0-1.87-.9-1.87-2.24,0-2.62,2.35-3.1,4.58-3.1v.67Zm3.11,7.51a.66.66,0,0,1-.73.07,8.08,8.08,0,0,1-1.77-2.05A6.11,6.11,0,0,1,45,17.61c-2.59,0-4.61-1.6-4.61-4.8a5.24,5.24,0,0,1,3.29-5A21.38,21.38,0,0,1,49.47,6.7a5.46,5.46,0,0,0-.37-2.63,2.16,2.16,0,0,0-1.73-.8A2.34,2.34,0,0,0,44.9,5.08c-.06.34-.31.63-.58.6l-3-.32a.54.54,0,0,1-.46-.64C41.6,1.09,44.87,0,47.8,0a7,7,0,0,1,4.64,1.53c1.5,1.4,1.35,3.27,1.35,5.31v4.8A4.18,4.18,0,0,0,55,14.49a.59.59,0,0,1,0,.82c-.63.53-2.37,2-2.37,2Z" transform="translate(0 0)"/><path class="cls-4" d="M9.08,9.84a6,6,0,0,1-.58,3.27,2.52,2.52,0,0,1-2.13,1.4c-1.18,0-1.87-.9-1.87-2.24,0-2.62,2.35-3.1,4.58-3.1v.67Zm3.11,7.51a.66.66,0,0,1-.73.07,7.85,7.85,0,0,1-1.77-2.05,6.11,6.11,0,0,1-5.08,2.24C2,17.61,0,16,0,12.81a5.23,5.23,0,0,1,3.29-5A21.38,21.38,0,0,1,9.08,6.7,5.37,5.37,0,0,0,8.7,4.07,2.13,2.13,0,0,0,7,3.27,2.34,2.34,0,0,0,4.51,5.08c-.06.34-.32.63-.58.6L1,5.36a.53.53,0,0,1-.46-.64C1.2,1.09,4.47,0,7.41,0a7,7,0,0,1,4.64,1.53c1.5,1.4,1.35,3.27,1.35,5.31v4.8a4.18,4.18,0,0,0,1.17,2.85.59.59,0,0,1,0,.82c-.63.53-2.37,2-2.37,2Z" transform="translate(0 0)"/></g><path class="cls-4" d="M21.2,8.44c0-1.83-.09-4.36,2.12-4.36s1.9,2.6,1.9,4.36v8.38a.57.57,0,0,0,.55.57h3.08a.58.58,0,0,0,.59-.57V8.44a9.47,9.47,0,0,1,.29-3,2,2,0,0,1,1.84-1.3,1.61,1.61,0,0,1,1.81,1.37,20.73,20.73,0,0,1,.09,3v8.38a.57.57,0,0,0,.55.57h3.08a.57.57,0,0,0,.59-.57v-10c0-1.7.2-3.63-.78-5a4.55,4.55,0,0,0-7.82,1.2c-.87-2-2.08-2.93-4-2.93a4.07,4.07,0,0,0-4.06,2.93H21v-2a.56.56,0,0,0-.57-.57H17.54a.57.57,0,0,0-.57.57V16.81a.58.58,0,0,0,.57.58h3.08a.58.58,0,0,0,.58-.58V8.44Z" transform="translate(0 0)"/><path class="cls-4" d="M91.13,16.81a.58.58,0,0,1-.58.58H87.47a.58.58,0,0,1-.57-.58V1.06a.57.57,0,0,1,.57-.57h2.85a.56.56,0,0,1,.57.45V3.35H91c.87-2.17,2.07-3.2,4.2-3.2A4,4,0,0,1,98.75,2c.8,1.26.8,3.39.8,4.92v10a.58.58,0,0,1-.59.5H95.87a.6.6,0,0,1-.55-.5V7.34c0-3.2-1.23-3.29-1.93-3.29a2.12,2.12,0,0,0-1.78,1.24,7.14,7.14,0,0,0-.49,3v8.5Z" transform="translate(0 0)"/></g></g></svg>