<?xml version="1.0" encoding="UTF-8"?>
<svg width="122px" height="30px" viewBox="0 0 122 30" version="1.1" xmlns="http://www.w3.org/2000/svg" xmlns:xlink="http://www.w3.org/1999/xlink">
    <title>Artboard Copy 2</title>
    <g id="Artboard-Copy-2" stroke="none" stroke-width="1" fill="none" fill-rule="evenodd">
        <g id="amazon-de-half-logo" transform="translate(0.000000, -1.000000)">
            <path d="M61.76,24.46 C56,28.73 47.59,31 40.37,31 C30.7178794,31.040956 21.3986545,27.4744711 14.24,21 C13.7,20.51 14.18,19.85 14.83,20.22 C22.7952641,24.7881374 31.8177721,27.1911516 41,27.19 C47.8505313,27.1567505 54.6269782,25.7701957 60.94,23.11 C61.94,22.7 62.74,23.75 61.78,24.46 L61.76,24.46 Z" id="Path" fill="#FF9900"></path>
            <path d="M64.17,21.71 C63.43,20.77 59.28,21.26 57.41,21.49 C56.85,21.56 56.76,21.06 57.27,20.7 C60.58,18.38 66.01,19.05 66.64,19.83 C67.27,20.61 66.47,26.05 63.37,28.65 C62.89,29.05 62.43,28.84 62.65,28.31 C63.34,26.56 64.91,22.66 64.17,21.71 Z" id="Path" fill="#FF9900"></path>
            <path d="M102.94,18.55 C102.649888,18.5610363 102.367946,18.4525971 102.16,18.25 C101.758499,17.7960392 101.758499,17.1139608 102.16,16.66 C102.366271,16.4537449 102.648421,16.3416082 102.94,16.35 C103.238746,16.3213441 103.534567,16.4283788 103.745811,16.6415605 C103.957054,16.8547422 104.061383,17.1515282 104.03,17.45 C104.041879,17.7461961 103.933709,18.0346496 103.73,18.25 C103.518343,18.4531478 103.23315,18.5614491 102.94,18.55 L102.94,18.55 Z" id="Path" fill="#232F3E" fill-rule="nonzero"></path>
            <path d="M109.21,17.24 C109.973866,17.2121311 110.709172,16.9425189 111.31,16.47 L111.31,11.75 C111.005903,11.5153485 110.668969,11.3266656 110.31,11.19 C109.934384,11.0739818 109.543111,11.0166399 109.15,11.02 C107.64,11.02 106.89,12.02 106.89,14.15 C106.89,16.28 107.67,17.24 109.25,17.24 L109.21,17.24 Z M108.71,18.57 C108.035075,18.5872056 107.371369,18.3950802 106.81,18.02 C106.266897,17.6355615 105.843882,17.1050593 105.59,16.49 C105.288835,15.7649176 105.142376,14.9849424 105.16,14.2 C105.142527,13.3742569 105.295725,12.5537985 105.61,11.79 C105.870535,11.1563178 106.312329,10.6136416 106.88,10.23 C107.43822,9.86529158 108.093325,9.67712314 108.76,9.69 C109.694091,9.68377727 110.599231,10.0138873 111.31,10.62 L111.31,6.39 C111.296394,6.29631099 111.327811,6.20169679 111.394754,6.13475374 C111.461697,6.06781069 111.556311,6.03639433 111.65,6.05 L112.65,6.05 C112.87,6.05 112.98,6.16 112.98,6.39 L112.98,18.05 C112.98,18.28 112.87,18.39 112.65,18.39 L111.92,18.39 C111.831284,18.3943628 111.743551,18.3697975 111.67,18.32 C111.5953,18.2475546 111.546166,18.1527961 111.53,18.05 L111.4,17.52 C111.031924,17.8507932 110.608901,18.1147592 110.15,18.3 C109.697431,18.4770198 109.215956,18.5685679 108.73,18.57 L108.71,18.57 Z" id="Shape" fill="#232F3E" fill-rule="nonzero"></path>
            <path d="M120.23,13.42 C120.23,13.33 120.23,13.19 120.23,12.99 C120.268658,12.4362654 120.101265,11.887784 119.76,11.45 C119.390568,11.0896009 118.884854,10.9040511 118.37,10.94 C117.759282,10.8990093 117.160861,11.1252415 116.73,11.56 C116.300789,12.0846057 116.067452,12.7421895 116.069979,13.42 L120.23,13.42 Z M118.63,18.64 C117.477307,18.7272433 116.343236,18.3115387 115.52,17.5 C114.777399,16.5487441 114.420362,15.3526707 114.52,14.15 C114.436557,12.9675784 114.792665,11.7959846 115.52,10.86 C116.279417,10.0553887 117.355387,9.62719638 118.46,9.69 C119.359726,9.62747967 120.243488,9.95116197 120.89,10.58 C121.495791,11.2743374 121.801473,12.1805935 121.74,13.1 C121.737874,13.4647189 121.711146,13.8288789 121.66,14.19 C121.654432,14.2867628 121.615568,14.3786218 121.55,14.45 C121.482276,14.5039061 121.396084,14.5290454 121.31,14.52 L116.08,14.52 C116.031904,15.2904061 116.282616,16.0497052 116.78,16.64 C117.361358,17.1375562 118.117339,17.3823501 118.88,17.32 C119.214726,17.3254705 119.5493,17.3020503 119.88,17.25 C120.259114,17.1950871 120.63352,17.1115143 121,17 L121.2,16.94 L121.35,16.94 C121.5,16.94 121.57,17.04 121.57,17.24 L121.57,17.7 C121.581755,17.8082405 121.557126,17.9173133 121.5,18.01 C121.42446,18.096247 121.328052,18.1616667 121.22,18.2 C120.837975,18.361656 120.438714,18.4790859 120.03,18.55 C119.572226,18.6411184 119.10675,18.6880009 118.64,18.69 L118.63,18.64 Z" id="Shape" fill="#232F3E" fill-rule="nonzero"></path>
            <path d="M57.54,4.28 L57.54,2 C57.5372622,1.84535138 57.5974896,1.69623006 57.7068598,1.58685983 C57.8162301,1.47748961 57.9653514,1.41726221 58.12,1.42 L68.24,1.42 C68.3946081,1.41457178 68.5447817,1.47222019 68.656043,1.57970992 C68.7673043,1.68719965 68.8300953,1.83529671 68.83,1.99 L68.83,4 C68.83,4.33 68.55,4.75 68.07,5.42 L62.82,12.91 C64.8236636,12.8037694 66.8192784,13.235347 68.6,14.16 C68.9253472,14.3332384 69.1290165,14.6714063 69.13,15.04 L69.13,17.4 C69.13,17.73 68.77,18.12 68.39,17.92 C65.0355061,16.1801729 61.0444939,16.1801729 57.69,17.92 C57.33,18.1 56.97,17.72 56.97,17.39 L56.97,15.12 C56.9345829,14.5778752 57.0635339,14.0376752 57.34,13.57 L63.42,4.85 L58.13,4.85 C57.9753919,4.85542822 57.8252183,4.79777981 57.713957,4.69029008 C57.6026957,4.58280035 57.5399047,4.43470329 57.54,4.28 Z" id="Path" fill="#232F3E"></path>
            <path d="M77.55,1.15 C82.12,1.15 84.55,5.08 84.55,10.07 C84.55,14.9 81.82,18.72 77.55,18.72 C73.06,18.72 70.61,14.8 70.61,9.9 C70.61,5 73.09,1.15 77.55,1.15 Z M77.55,4.38 C75.28,4.38 75.14,7.48 75.14,9.38 C75.14,11.28 75.14,15.43 77.53,15.43 C79.92,15.43 80.03,12.1 80.03,10.07 C80.0783298,8.6585031 79.9234107,7.24739173 79.57,5.88 C79.3698582,4.94784048 78.5220528,4.29926937 77.57,4.35 L77.55,4.38 Z" id="Shape" fill="#232F3E"></path>
            <g id="Group" fill="#232F3E">
                <path d="M49.47,10.84 C49.5881872,11.9628602 49.3871521,13.0962825 48.89,14.11 C48.4890777,14.9307468 47.672446,15.4675 46.76,15.51 C45.58,15.51 44.89,14.61 44.89,13.27 C44.89,10.65 47.24,10.17 49.47,10.17 L49.47,10.84 L49.47,10.84 Z M52.58,18.35 C52.3732138,18.5188139 52.0850984,18.5464414 51.85,18.42 C51.1488609,17.8411214 50.5504561,17.1480537 50.08,16.37 C48.8432519,17.8873109 46.9543887,18.7201954 45,18.61 C42.41,18.61 40.39,17.01 40.39,13.81 C40.3332727,11.6193526 41.6457142,9.62476076 43.68,8.81 C45.5494823,8.17440412 47.4980023,7.80085365 49.47,7.7 C49.5650143,6.80624232 49.4379212,5.9028504 49.1,5.07 C48.6785315,4.54956529 48.0395027,4.25406066 47.37,4.27 C46.2113852,4.17608963 45.1594822,4.94691731 44.9,6.08 C44.84,6.42 44.59,6.71 44.32,6.68 L41.32,6.36 C41.1719248,6.34070175 41.0384512,6.26094808 40.9512983,6.13969187 C40.8641454,6.01843565 40.8310945,5.86650315 40.86,5.72 C41.6,2.09 44.87,1 47.8,1 C49.480226,0.936171131 51.1272883,1.47927573 52.44,2.53 C53.94,3.93 53.8,5.8 53.8,7.84 L53.8,12.64 C53.8199553,13.7086849 54.2495212,14.7289039 55,15.49 C55.2209812,15.7186693 55.2209812,16.0813307 55,16.31 C54.37,16.84 52.63,18.31 52.63,18.31 L52.58,18.35 Z" id="Shape"></path>
                <path d="M9.08,10.84 C9.19818725,11.9628602 8.9971521,13.0962825 8.5,14.11 C8.09574586,14.9278066 7.28106852,15.4632753 6.37,15.51 C5.19,15.51 4.5,14.61 4.5,13.27 C4.5,10.65 6.85,10.17 9.08,10.17 L9.08,10.84 L9.08,10.84 Z M12.19,18.35 C11.9832138,18.5188139 11.6950984,18.5464414 11.46,18.42 C10.7556845,17.8443768 10.1567723,17.1507215 9.69,16.37 C8.45325186,17.8873109 6.56438874,18.7201954 4.61,18.61 C2,18.61 -3.90312782e-18,17 -3.90312782e-18,13.81 C-0.0596677426,11.6185143 1.25378075,9.62239201 3.29,8.81 C5.15948231,8.17440412 7.10800234,7.80085365 9.08,7.7 C9.17566538,6.80534227 9.04499818,5.90098771 8.7,5.07 C8.28791226,4.5543154 7.66001686,4.25883521 7,4.27 C5.83411639,4.1656193 4.77046062,4.93879879 4.51,6.08 C4.45,6.42 4.19,6.71 3.93,6.68 L1,6.36 C0.850577578,6.34361275 0.715142034,6.26454676 0.627410834,6.14248596 C0.539679634,6.02042516 0.507905941,5.86685222 0.54,5.72 C1.2,2.09 4.47,1 7.41,1 C9.09022599,0.936171131 10.7372883,1.47927573 12.05,2.53 C13.55,3.93 13.4,5.8 13.4,7.84 L13.4,12.64 C13.4129142,13.7043145 13.8313633,14.7236136 14.57,15.49 C14.7909812,15.7186693 14.7909812,16.0813307 14.57,16.31 C13.94,16.84 12.2,18.31 12.2,18.31 L12.19,18.35 Z" id="Shape"></path>
            </g>
            <path d="M21.2,9.44 C21.2,7.61 21.11,5.08 23.32,5.08 C25.53,5.08 25.22,7.68 25.22,9.44 L25.22,17.82 C25.2198109,18.1271544 25.4630347,18.3792227 25.77,18.39 L28.85,18.39 C29.0038322,18.3926752 29.1524242,18.3341193 29.2630757,18.2272187 C29.3737272,18.1203181 29.4373706,17.973833 29.44,17.82 L29.44,9.44 C29.3758931,8.43093078 29.4737995,7.41810618 29.73,6.44 C30.0177217,5.66957946 30.7477223,5.15381822 31.57,5.14 C32.4474024,5.02128809 33.2560098,5.63332791 33.38,6.51 C33.4824471,7.50651183 33.512526,8.50913898 33.47,9.51 L33.47,17.89 C33.4698109,18.1971544 33.7130347,18.4492227 34.02,18.46 L37.1,18.46 C37.2546081,18.4654282 37.4047817,18.4077798 37.516043,18.3002901 C37.6273043,18.1928004 37.6900953,18.0447033 37.69,17.89 L37.69,7.89 C37.69,6.19 37.89,4.26 36.91,2.89 C35.8948819,1.60625985 34.268532,0.966596236 32.6508692,1.21483094 C31.0332064,1.46306565 29.6734878,2.56094948 29.09,4.09 C28.22,2.09 27.01,1.16 25.09,1.16 C23.2249465,1.09025768 21.5514599,2.29797092 21.03,4.09 L21,4.09 L21,2.09 C21.0027393,1.93800337 20.943566,1.79142458 20.8360707,1.68392928 C20.7285754,1.57643398 20.5819966,1.51726065 20.43,1.52 L17.54,1.52 C17.2251977,1.52 16.97,1.77519769 16.97,2.09 L16.97,17.81 C16.97,18.1264602 17.2235868,18.3845438 17.54,18.39 L20.62,18.39 C20.9403252,18.39 21.2,18.1303252 21.2,17.81 L21.2,9.44 Z" id="Path" fill="#232F3E"></path>
            <path d="M91.13,17.81 C91.13,18.1303252 90.8703252,18.39 90.55,18.39 L87.47,18.39 C87.1535868,18.3845438 86.9,18.1264602 86.9,17.81 L86.9,2.06 C86.9,1.74519769 87.1551977,1.49 87.47,1.49 L90.32,1.49 C90.594693,1.47977418 90.8361953,1.6704339 90.89,1.94 L90.89,4.35 L91,4.35 C91.87,2.18 93.07,1.15 95.2,1.15 C96.6289892,1.08759371 97.9825482,1.79296953 98.75,3 C99.55,4.26 99.55,6.39 99.55,7.92 L99.55,17.92 C99.5093601,18.2125966 99.2552997,18.427902 98.96,18.42 L95.87,18.42 C95.5930746,18.4006358 95.3655907,18.1938323 95.32,17.92 L95.32,8.34 C95.32,5.14 94.09,5.05 93.39,5.05 C92.6141089,5.10547241 91.9309096,5.58140902 91.61,6.29 C91.2301168,7.24257062 91.0595929,8.26571433 91.11,9.29 L91.11,17.79 L91.13,17.81 Z" id="Path" fill="#232F3E"></path>
        </g>
    </g>
</svg>