<?xml version="1.0" encoding="UTF-8"?>
<svg width="120px" height="30px" viewBox="0 0 120 30" version="1.1" xmlns="http://www.w3.org/2000/svg" xmlns:xlink="http://www.w3.org/1999/xlink">
    <title>Artboard</title>
    <g id="Artboard" stroke="none" stroke-width="1" fill="none" fill-rule="evenodd">
        <g id="Group-2" transform="translate(-0.000000, -0.000000)" fill-rule="nonzero">
            <path d="M61.6553332,23.4245419 C55.9052765,27.6871707 47.5097945,29.953252 40.3022582,29.953252 C30.6667998,29.9941373 21.3636625,26.4338092 14.2173658,19.9705148 C13.678298,19.4813607 14.1574693,18.8225 14.8063473,19.1918613 C22.7578611,23.7521128 31.7647938,26.1509787 40.9311706,26.1498291 C47.7698761,26.116637 54.534625,24.7324758 60.8367487,22.0768723 C61.8350224,21.6675801 62.6336414,22.7157675 61.6752986,23.4245419 L61.6553332,23.4245419 Z" id="Path" fill="#FF9900"></path>
            <path d="M64.0611728,20.6792891 C63.3224503,19.7409118 59.1796143,20.2300659 57.3128425,20.4596689 C56.7538092,20.5295481 56.6639645,20.0304112 57.1730841,19.6710327 C60.4773702,17.3550376 65.8979965,18.023881 66.5269089,18.8025345 C67.1558214,19.581188 66.3572024,25.0117971 63.2625539,27.6073088 C62.7833825,28.0066183 62.3241766,27.7969808 62.5437968,27.2678957 C63.2326057,25.5209167 64.7998954,21.6276492 64.0611728,20.6792891 Z" id="Path" fill="#FF9900"></path>
            <path d="M102.764245,17.5247442 C102.474634,17.5357614 102.193178,17.4275094 101.985591,17.225262 C101.584783,16.7720849 101.584783,16.0911841 101.985591,15.6380068 C102.191506,15.4321079 102.473169,15.3201646 102.764245,15.328542 C103.062475,15.2999355 103.357785,15.4067855 103.568665,15.6195991 C103.779544,15.8324128 103.883692,16.1286865 103.852363,16.4266431 C103.864223,16.7223279 103.756239,17.0102834 103.552881,17.225262 C103.341589,17.4280591 103.056889,17.5361735 102.764245,17.5247442 L102.764245,17.5247442 Z" id="Path" fill="#232F3E"></path>
            <path d="M57.442618,3.27937811 L57.442618,1.00331402 C57.4367637,0.848921393 57.4962311,0.699207381 57.6064275,0.590910948 C57.7166238,0.482614515 57.8673494,0.425759572 58.0216168,0.434297998 L68.1241469,0.434297998 C68.2784881,0.428879152 68.4284025,0.486428043 68.5394717,0.593732212 C68.6505409,0.701036382 68.7132235,0.84887779 68.7131284,1.00331402 L68.7131284,2.99986147 C68.7131284,3.3292918 68.4336118,3.74856676 67.9544404,4.41741016 L62.7135033,11.8944803 C64.713708,11.7884331 66.7058779,12.2192657 68.4835254,13.1423225 C68.808311,13.3152618 69.0116287,13.652846 69.0126105,14.0208034 L69.0126105,16.3767294 C69.0126105,16.7061597 68.653232,17.0954865 68.273888,16.885849 C64.9239585,15.154061 60.9422887,15.154061 57.5923591,16.885849 C57.2329806,17.0655382 56.873602,16.6861942 56.873602,16.3567639 L56.873602,14.1006653 C56.8382461,13.5594763 56.9669745,13.0202089 57.2429633,12.553341 L63.3124676,3.84839413 L58.0315995,3.84839413 C57.8772584,3.85381298 57.7273441,3.79626409 57.6162749,3.68895992 C57.5052056,3.58165575 57.442523,3.43381434 57.442618,3.27937811 Z" id="Path" fill="#232F3E"></path>
            <g id="Group" fill="#232F3E">
                <path d="M77.4180753,0.154781355 C81.9801862,0.154781355 84.4059914,4.07799709 84.4059914,9.05938298 C84.4059914,13.8810451 81.6807041,17.6944507 77.4180753,17.6944507 C72.9358263,17.6944507 70.4900556,13.7812177 70.4900556,8.88967644 C70.4900556,3.99813519 72.9657745,0.154781355 77.4180753,0.154781355 Z M77.4180753,3.37920548 C75.1420112,3.37920548 75.0022529,6.47385403 75.0022529,8.37057411 C75.0022529,10.2672942 75.0022529,14.4101301 77.3881271,14.4101301 C79.7740013,14.4101301 79.8838114,11.0858786 79.8838114,9.05938298 C79.9320578,7.65032271 79.7774061,6.24164732 79.4246055,4.87661607 C79.2286112,3.94366333 78.3797912,3.29431605 77.428058,3.34925727 L77.4180753,3.37920548 Z" id="Shape"></path>
                <path d="M52.3514221,1.53239909 C53.8488326,2.92998231 53.7090743,4.79675417 53.7090743,6.83323257 L53.7090743,11.6249464 C53.7289952,12.6917865 54.1578195,13.7102443 54.9070028,14.4700266 C55.1276026,14.6983011 55.1276026,15.0603365 54.9070028,15.288611 C54.3054344,15.7946924 52.6900425,17.1593269 52.5507109,17.2770341 L52.4911804,17.3250894 C52.2847511,17.493612 51.9971331,17.5211918 51.7624406,17.3949686 C51.0625119,16.8170893 50.46514,16.125218 49.9954961,15.3485074 C48.7608829,16.863199 46.8752805,17.6946458 44.9242655,17.5846406 C42.3387366,17.5846406 40.3222237,15.9874026 40.3222237,12.7929267 C40.2655944,10.606061 41.5757702,8.61491234 43.6065442,7.80155808 C45.4727993,7.16705942 47.4179557,6.7941538 49.3865491,6.69347425 C49.4813995,5.80125945 49.3545257,4.89942702 49.0171878,4.06801435 C48.5964469,3.54847806 47.9585213,3.25348355 47.2901743,3.26939537 C46.1335596,3.17564712 45.0834725,3.94514414 44.8244382,5.07627082 C44.7645417,5.41568388 44.5149733,5.70518326 44.2454394,5.67523505 L41.2506182,5.35578746 C41.1027987,5.33652252 40.9695555,5.25690653 40.882553,5.13585964 C40.7955506,5.01481274 40.7625567,4.86314252 40.7914123,4.71689227 C41.5301349,1.09315865 44.79449,0.00504029572 47.719432,0.00504029572 C49.3967574,-0.0586783872 51.0409765,0.483488661 52.3514221,1.53239909 Z M49.3865491,9.15921035 C47.1603987,9.15921035 44.8144554,9.63838174 44.8144554,12.2538589 C44.8144554,13.5915457 45.5032643,14.489992 46.6812273,14.489992 C47.5920983,14.4475655 48.4073202,13.9117388 48.8075503,13.0924088 C49.3038442,12.0804413 49.5045324,10.9489756 49.3865491,9.82805374 L49.3865491,9.82805374 Z" id="Shape"></path>
                <path d="M12.0311463,1.53239909 C13.2165964,2.63881914 13.369717,4.03929665 13.3820654,5.58523877 L13.3823254,6.07809309 C13.3811555,6.32676464 13.3788158,6.57867277 13.3788158,6.83323257 L13.3788158,11.6249464 C13.3917078,12.6874236 13.8094346,13.7049631 14.5467961,14.4700266 C14.7673959,14.6983011 14.7673959,15.0603365 14.5467961,15.288611 C13.9178837,15.8176961 12.1808874,17.2851585 12.1808874,17.2851585 L12.1709046,17.3250894 C11.9644754,17.493612 11.6768574,17.5211918 11.4421648,17.3949686 C10.7390652,16.8203391 10.1411869,16.1278812 9.67522036,15.3485074 C8.44060719,16.863199 6.55500476,17.6946458 4.60398984,17.5846406 C1.99849542,17.5846406 0.00194796682,15.9774199 0.00194796682,12.7929267 C-0.0576167729,10.6052242 1.25356435,8.61254768 3.28626853,7.80155808 C5.15252359,7.16705942 7.09767993,6.7941538 9.06627339,6.69347425 C9.16177363,5.80036094 9.03133199,4.89756755 8.68692938,4.06801435 C8.27555301,3.55321998 7.64874152,3.25824987 6.98986404,3.26939537 C5.82599306,3.16519486 4.76417346,3.93703964 4.50416247,5.07627082 C4.44426605,5.41568388 4.18471488,5.70518326 3.92516371,5.67523505 L1.0002217,5.35578746 C0.851057213,5.33942851 0.715855468,5.260499 0.628275717,5.13864891 C0.540695966,5.01679883 0.508977123,4.86349099 0.541015778,4.71689227 C1.19987644,1.09315865 4.46423152,0.00504029572 7.39915627,0.00504029572 C9.07648173,-0.0586783872 10.7207007,0.483488661 12.0311463,1.53239909 Z M9.06627339,9.15921035 C6.84012299,9.15921035 4.49417973,9.63838174 4.49417973,12.2538589 C4.49417973,13.5915457 5.1829886,14.489992 6.3609516,14.489992 C7.27044736,14.443348 8.08371835,13.9088037 8.48727463,13.0924088 C8.9835685,12.0804413 9.18425661,10.9489756 9.06627339,9.82805374 L9.06627339,9.82805374 Z" id="Shape"></path>
            </g>
            <path d="M21.1653509,8.43047053 C21.1653509,6.60362961 21.0755063,4.07799709 23.2816912,4.07799709 C25.4878761,4.07799709 25.1784113,6.67350877 25.1784113,8.43047053 L25.1784113,16.7960043 C25.1782225,17.1026285 25.4210264,17.3542617 25.7274618,17.3650204 L28.8021449,17.3650204 C28.9557115,17.3676909 29.104047,17.3092361 29.2145075,17.2025201 C29.324968,17.095804 29.3885015,16.9495718 29.3911264,16.7960043 L29.3911264,8.43047053 C29.3271303,7.42314324 29.4248675,6.41206706 29.6806258,5.43564936 C29.9678509,4.66655878 30.6965912,4.15168788 31.5174494,4.13789351 C32.3933373,4.01938653 33.2005487,4.63036981 33.3243249,5.50552852 C33.4265952,6.50032009 33.4566221,7.50121643 33.4141695,8.50034969 L33.4141695,16.8658835 C33.4139807,17.1725077 33.6567847,17.4241408 33.96322,17.4348995 L37.0379031,17.4348995 C37.1922443,17.4403183 37.3421587,17.3827695 37.4532279,17.2754653 C37.5642971,17.1681612 37.6269798,17.0203197 37.6268846,16.8658835 L37.6268846,6.88314626 C37.6268846,5.18608093 37.8265394,3.25941264 36.8482311,1.89177763 C35.8348654,0.610253571 34.2113231,-0.0283058041 32.5964527,0.219500381 C30.9815825,0.467306565 29.6242111,1.56329515 29.0417306,3.0897061 C28.1732324,1.09315865 26.9653212,0.164764092 25.0486357,0.164764092 C23.1868018,0.0951421642 21.5162041,1.30077056 20.9956444,3.0897061 L20.9656961,3.0897061 L20.9656961,1.09315865 C20.9684308,0.941424415 20.9093597,0.795098657 20.8020499,0.687788924 C20.6947402,0.58047919 20.5484144,0.521408013 20.3966801,0.524142633 L17.5116691,0.524142633 C17.1974102,0.524142633 16.942653,0.778899783 16.942653,1.09315865 L16.942653,16.7860216 C16.942653,17.1019355 17.1958022,17.3595736 17.5116691,17.3650204 L20.5863521,17.3650204 C20.9061244,17.3650204 21.1653509,17.1057938 21.1653509,16.7860216 L21.1653509,8.43047053 Z" id="Path" fill="#232F3E"></path>
            <path d="M90.9746325,16.7860216 C90.9746325,17.1057938 90.7154059,17.3650204 90.3956337,17.3650204 L87.3209506,17.3650204 C87.0050837,17.3595736 86.7519346,17.1019355 86.7519346,16.7860216 L86.7519346,1.06321044 C86.7519346,0.748951572 87.0066918,0.494194421 87.3209506,0.494194421 L90.1660307,0.494194421 C90.4402496,0.483986252 90.681335,0.674316843 90.7350468,0.943417597 L90.7350468,3.34925727 L90.8448569,3.34925727 C91.713355,1.18300329 92.9112835,0.154781355 95.0376065,0.154781355 C96.464129,0.0924827981 97.8153514,0.796640943 98.5814782,2.00158774 C99.3800972,3.25941264 99.3800972,5.38573567 99.3800972,6.91309447 L99.3800972,16.8958317 C99.3395276,17.1879232 99.0859058,17.4028569 98.7911157,17.3949686 L95.7064499,17.3949686 C95.4300026,17.3756378 95.2029115,17.1691914 95.1573994,16.8958317 L95.1573994,7.33236943 C95.1573994,4.13789351 93.9395054,4.04804888 93.2307311,4.04804888 C92.4575687,4.10050462 91.7771762,4.57716375 91.4637866,5.2859083 C91.079931,6.23553628 90.9095305,7.25793902 90.9646497,8.28072947 L90.9646497,16.7660561 L90.9746325,16.7860216 Z" id="Path" fill="#232F3E"></path>
            <path d="M107.965,17.5475 C108.933,17.5475 109.7085,17.3165 110.2915,16.8545 C110.8745,16.3925 111.166,15.771 111.166,14.99 C111.166,14.44 111.023,13.99175 110.737,13.64525 C110.451,13.29875 109.9835,12.999 109.3345,12.746 L109.3345,12.746 L108.0475,12.251 C107.5305,12.053 107.184,11.8715 107.008,11.7065 C106.832,11.5415 106.744,11.316 106.744,11.03 C106.744,10.315 107.272,9.9575 108.328,9.9575 C108.933,9.9575 109.527,10.0455 110.11,10.2215 C110.286,10.2765 110.4125,10.304 110.4895,10.304 C110.6325,10.304 110.704,10.205 110.704,10.007 L110.704,10.007 L110.704,9.5615 C110.704,9.4185 110.6765,9.31125 110.6215,9.23975 C110.5665,9.16825 110.473,9.1105 110.341,9.0665 C109.659,8.8135 108.9605,8.687 108.2455,8.687 C107.3435,8.687 106.61475,8.907 106.05925,9.347 C105.50375,9.787 105.226,10.3645 105.226,11.0795 C105.226,12.1685 105.8365,12.9385 107.0575,13.3895 L107.0575,13.3895 L108.46,13.9175 C108.911,14.0825 109.22175,14.2475 109.39225,14.4125 C109.56275,14.5775 109.648,14.792 109.648,15.056 C109.648,15.452 109.50775,15.7545 109.22725,15.9635 C108.94675,16.1725 108.537,16.277 107.998,16.277 C107.217,16.277 106.4635,16.1615 105.7375,15.9305 C105.5395,15.8645 105.402,15.8315 105.325,15.8315 C105.193,15.8315 105.127,15.9305 105.127,16.1285 L105.127,16.1285 L105.127,16.5905 C105.127,16.7335 105.15175,16.838 105.20125,16.904 C105.25075,16.97 105.3415,17.0305 105.4735,17.0855 C106.2105,17.3935 107.041,17.5475 107.965,17.5475 Z M116.4285,17.5475 C116.8905,17.5475 117.34975,17.5035 117.80625,17.4155 C118.26275,17.3275 118.656,17.212 118.986,17.069 C119.129,17.003 119.2225,16.93975 119.2665,16.87925 C119.3105,16.81875 119.3325,16.717 119.3325,16.574 L119.3325,16.574 L119.3325,16.112 C119.3325,15.914 119.261,15.815 119.118,15.815 C119.074,15.815 119.0245,15.82325 118.9695,15.83975 C118.9145,15.85625 118.8485,15.8755 118.7715,15.8975 C118.3095,16.0405 117.92725,16.134 117.62475,16.178 C117.32225,16.222 117.006,16.244 116.676,16.244 C115.741,16.244 115.05075,16.0185 114.60525,15.5675 C114.15975,15.1165 113.926,14.418 113.904,13.472 L113.904,13.472 L119.085,13.472 C119.195,13.472 119.27475,13.45 119.32425,13.406 C119.37375,13.362 119.4095,13.274 119.4315,13.142 C119.4865,12.779 119.514,12.4215 119.514,12.0695 C119.514,10.9915 119.2335,10.15825 118.6725,9.56975 C118.1115,8.98125 117.3085,8.687 116.2635,8.687 C115.0205,8.687 114.0525,9.07475 113.3595,9.85025 C112.6665,10.62575 112.32,11.712 112.32,13.109 C112.32,14.572 112.6665,15.6775 113.3595,16.4255 C114.0525,17.1735 115.0755,17.5475 116.4285,17.5475 Z M118.0125,12.383 L113.904,12.383 C113.959,11.569 114.179,10.95575 114.564,10.54325 C114.949,10.13075 115.488,9.9245 116.181,9.9245 C116.786,9.9245 117.24525,10.095 117.55875,10.436 C117.87225,10.777 118.029,11.283 118.029,11.954 C118.029,12.152 118.0235,12.295 118.0125,12.383 L118.0125,12.383 Z" id="se" fill="#232F3E"></path>
        </g>
    </g>
</svg>